# xmcd
#
# Track frame offsets: 
#        150
#        15937
#        38257
#        59281
#        78579
#        97665
#        118809
#        140706
#        161737
#        175107
#        193673
#        221062
#        241147
#        265502
#        280745
#        297469
#        314610
#        330545
#
# Disc length: 4653 seconds
#
# Revision: 0
# Processed by: cddbd v1.5.2PL0 Copyright (c) Steve Scherf et al.
# Submitted via: ExactAudioCopy v0.99pb3
#
DISCID=f9122b12
DTITLE=Various Artist - Romantic Collection vol.5
DYEAR=1900
DGENRE=Ballad
TTITLE0=Mungo Jerry - In the sunmertime
TTITLE1=Santana Feat.Rob Thomas - Smooth
TTITLE2=Elton John - Word in Spanish
TTITLE3=Duran Duran - Come undone
TTITLE4=Billy Idol - Sweet sixteen
TTITLE5=Mariah Carey g boyz 2 men - One sweet day 
TTITLE6=Bryan Adams - Have you ever really loved a woman
TTITLE7=Cock Robin - Whcn heart is weah
TTITLE8=Kelly Family -  Ever baby
TTITLE9=Laura Branigan - Self control
TTITLE10=Leonard Cohen - Danct me to the end of love
TTITLE11=Matthews Souserh comfort - Woodstock
TTITLE12=Francis Goyd - God father
TTITLE13=Phil Collins - Another day in paradise
TTITLE14=Kanzas - Dust in the Wind
TTITLE15=The Bangles - Eternal Flame
TTITLE16=Crowded House - Don't Dream it's Over
TTITLE17=Foreigner - Waiting for a Girl Like You
EXTD=
EXTT0=
EXTT1=
EXTT2=
EXTT3=
EXTT4=
EXTT5=
EXTT6=
EXTT7=
EXTT8=
EXTT9=
EXTT10=
EXTT11=
EXTT12=
EXTT13=
EXTT14=
EXTT15=
EXTT16=
EXTT17=
PLAYORDER=
